# xmcd CD database file
#
# Track frame offsets:
#	150
#	14368
#	28207
#	43305
#	56905
#	71698
#	85244
#	100113
#	113934
#	128163
#	141824
#	154809
#	170496
#	184324
#	197688
#	210832
#	223718
#	238219
#	252971
#
# Disc length: 3587 seconds
#
# Revision: 1
# Processed by: cddbd v1.4PL0 Copyright (c) Steve Scherf et al.
# Submitted via: CDex 1.50beta8
#
DISCID=1d0e0113
DTITLE=Billie Holiday - The Man I Love
DYEAR=2002
DGENRE=Blues
TTITLE0=Strange Fruit
TTITLE1=I Love My Man
TTITLE2=Lover Come Back To Me
TTITLE3=My Old Flame
TTITLE4=Georgia On My Mind
TTITLE5=All Of Me
TTITLE6=Love Me Or Leave Me
TTITLE7=Moanin' Low
TTITLE8=My Last Affair
TTITLE9=On The Sunny Side Of The Street
TTITLE10=I Gotta Right To Sing The Blues
TTITLE11=Yesterdays
TTITLE12=The Man I Love
TTITLE13=Body And Soul
TTITLE14=God Bless The Child
TTITLE15=Am I Blue?
TTITLE16=Gloomy Sunday
TTITLE17=Embraceable You
TTITLE18=I'll Be Seeing You
EXTD=YEAR: 2002
EXTT0=
EXTT1=
EXTT2=
EXTT3=
EXTT4=
EXTT5=
EXTT6=
EXTT7=
EXTT8=
EXTT9=
EXTT10=
EXTT11=
EXTT12=
EXTT13=
EXTT14=
EXTT15=
EXTT16=
EXTT17=
EXTT18=
PLAYORDER=
